<?xml version="1.0" standalone="no"?>
<!DOCTYPE svg PUBLIC "-//W3C//DTD SVG 20010904//EN"
 "http://www.w3.org/TR/2001/REC-SVG-20010904/DTD/svg10.dtd">
<svg version="1.0" xmlns="http://www.w3.org/2000/svg"
 width="512.000000pt" height="512.000000pt" viewBox="0 0 512.000000 512.000000"
 preserveAspectRatio="xMidYMid meet">
<metadata>
Created by potrace 1.14, written by Peter Selinger 2001-2017
</metadata>
<g transform="translate(0.000000,512.000000) scale(0.100000,-0.100000)"
fill="#000000" stroke="none">
<path d="M3649 5112 c-20 -9 -69 -47 -114 -87 -18 -16 -55 -48 -81 -70 -26
-22 -60 -52 -76 -67 -16 -16 -31 -28 -34 -28 -3 0 -23 -18 -45 -40 -21 -21
-39 -36 -39 -32 0 4 -10 -4 -23 -18 -12 -14 -44 -43 -72 -65 -27 -22 -57 -47
-65 -55 -9 -8 -42 -37 -74 -65 -32 -27 -68 -58 -79 -67 -11 -10 -24 -18 -29
-18 -5 0 -6 -4 -3 -10 3 -5 3 -10 -2 -10 -4 0 -20 -10 -34 -23 -15 -12 -48
-40 -74 -62 -26 -22 -53 -45 -59 -50 -10 -9 -180 -156 -260 -225 -16 -14 -39
-34 -52 -45 -12 -11 -43 -38 -70 -60 -26 -22 -59 -51 -74 -65 -15 -14 -49 -43
-75 -65 -27 -22 -70 -59 -96 -83 -26 -23 -62 -55 -81 -70 -19 -15 -42 -34 -50
-42 -9 -8 -38 -34 -65 -57 -95 -82 -208 -180 -237 -204 -15 -13 -38 -33 -51
-44 -12 -11 -46 -40 -75 -65 -28 -25 -62 -54 -74 -65 -12 -11 -44 -38 -71 -60
-26 -22 -55 -48 -64 -57 -8 -10 -18 -18 -22 -18 -4 0 -22 -15 -40 -32 -35 -34
-96 -87 -169 -148 -23 -19 -57 -48 -76 -65 -18 -16 -52 -47 -76 -67 -24 -20
-58 -50 -76 -66 -18 -16 -54 -47 -79 -68 -26 -22 -51 -43 -57 -49 -19 -17 -89
-78 -146 -125 -29 -25 -64 -55 -76 -67 -13 -13 -26 -23 -29 -23 -11 0 -57 -55
-66 -78 -24 -63 -2 -134 53 -174 l33 -23 860 -2 c473 -1 871 -2 884 -3 17 0
21 -3 13 -12 -10 -14 -90 -165 -187 -358 -32 -63 -63 -118 -69 -122 -6 -4 -8
-8 -4 -8 8 0 -55 -123 -74 -147 -6 -7 -8 -13 -4 -13 3 0 -5 -18 -19 -40 -13
-21 -26 -45 -27 -52 -2 -7 -5 -15 -8 -18 -3 -3 -18 -32 -35 -65 -16 -33 -37
-71 -46 -85 -9 -14 -17 -27 -17 -30 0 -7 -61 -128 -181 -360 -55 -107 -127
-247 -158 -310 -32 -63 -60 -117 -63 -120 -3 -3 -29 -53 -58 -111 -51 -104
-66 -169 -42 -184 6 -4 8 -10 5 -15 -5 -8 58 -69 73 -71 4 0 18 -3 32 -5 60
-12 104 12 197 103 18 18 33 29 33 26 0 -4 8 2 19 13 10 10 42 39 71 64 29 25
65 58 81 73 16 16 29 25 29 21 0 -4 6 -1 13 8 10 14 47 46 147 132 46 39 255
220 267 231 13 12 70 61 198 171 50 42 115 99 145 125 58 50 62 54 156 134 32
28 71 61 86 75 16 14 34 30 41 36 54 46 168 144 192 166 17 14 41 36 55 47 47
40 66 56 131 113 35 31 77 66 93 79 16 12 38 32 51 43 25 25 80 73 156 138 30
25 65 55 78 67 13 12 28 21 33 21 5 0 6 5 3 10 -3 6 -2 10 3 10 4 0 18 9 30
20 12 12 22 19 22 17 0 -3 20 14 44 37 24 22 60 55 80 71 21 17 49 41 64 55
36 33 139 121 164 140 11 8 37 32 59 53 21 21 39 36 39 33 0 -2 17 12 39 32
21 20 56 51 77 68 22 18 51 42 65 55 14 13 52 47 85 74 32 28 69 60 81 72 13
12 23 20 23 16 0 -3 12 8 28 24 15 15 41 39 57 53 75 62 74 178 -3 231 l-36
24 -835 2 c-460 1 -858 2 -885 3 -40 0 -46 2 -37 14 11 13 62 110 189 361 30
61 59 113 65 116 5 3 7 8 6 10 -6 7 73 159 83 159 5 0 6 5 2 11 -3 6 -3 14 2
18 14 10 126 231 117 231 -4 0 -3 4 3 8 11 8 17 18 160 302 55 107 101 197
104 200 13 13 40 70 33 70 -4 0 -3 4 2 8 15 11 67 112 58 112 -4 0 -3 4 3 8 6
4 48 79 93 167 75 145 82 164 77 204 -6 50 -25 84 -62 107 -28 19 -99 28 -125
16z"/>
</g>
</svg>
